<?xml version="1.0" encoding="UTF-8" standalone="no"?>
<!-- Created with Inkscape (http://www.inkscape.org/) -->

<svg
   width="2000"
   height="800"
   viewBox="0 0 529.16675 211.6667"
   version="1.1"
   id="svg1"
   xml:space="preserve"
   sodipodi:docname="P Fixed 10 on 90 Jawin Group Logo - horizontal.svg"
   inkscape:version="1.3 (0e150ed6c4, 2023-07-21)"
   inkscape:export-filename="P Fixed 10 on 90 Jawin Group Logo 300DPI HORIZONTAL.png"
   inkscape:export-xdpi="96"
   inkscape:export-ydpi="96"
   xmlns:inkscape="http://www.inkscape.org/namespaces/inkscape"
   xmlns:sodipodi="http://sodipodi.sourceforge.net/DTD/sodipodi-0.dtd"
   xmlns="http://www.w3.org/2000/svg"
   xmlns:svg="http://www.w3.org/2000/svg"><sodipodi:namedview
     id="namedview1"
     pagecolor="#ffffff"
     bordercolor="#000000"
     borderopacity="0.25"
     inkscape:showpageshadow="2"
     inkscape:pageopacity="0.0"
     inkscape:pagecheckerboard="0"
     inkscape:deskcolor="#d1d1d1"
     inkscape:document-units="mm"
     inkscape:zoom="0.25858552"
     inkscape:cx="537.53977"
     inkscape:cy="506.60223"
     inkscape:window-width="958"
     inkscape:window-height="1000"
     inkscape:window-x="-7"
     inkscape:window-y="0"
     inkscape:window-maximized="0"
     inkscape:current-layer="layer1"
     inkscape:export-bgcolor="#ffffffff" /><defs
     id="defs1" /><g
     inkscape:label="Layer 1"
     inkscape:groupmode="layer"
     id="layer1"><path
       d="m 160.99146,104.47683 c 0.19519,11.37265 -3.32244,21.81711 -9.92396,31.34203 -11.61555,16.76403 -31.46347,23.03157 -54.351913,18.512 C 75.35391,150.10624 63.42607,137.98756 58.19517,119.16759 53.931509,103.82188 56.460211,90.046314 68.604921,78.274621 c 1.840357,-1.739296 3.542785,-3.61869 5.092103,-5.621266 10.630959,-14.057501 26.067752,-17.926459 43.417336,-16.698976 25.59064,1.808695 42.26793,18.650804 43.85108,43.543122 0.11711,1.656889 0.026,3.318109 0.026,4.979329 z m -18.90671,3.1663 c -0.56386,-3.62606 -0.81543,-6.73164 -1.53544,-9.737454 C 135.3054,76.305443 112.35624,66.468228 88.144891,80.161388 77.127905,86.389889 72.356769,104.38141 77.8349,115.20755 c 2.472316,4.88825 6.744652,9.02612 10.344691,13.40689 4.04679,4.92728 9.572633,7.49069 16.191499,8.47961 17.14573,2.55473 30.58732,-4.13787 35.54496,-18.21706 1.30122,-3.72583 1.52677,-7.77695 2.1687,-11.22518 z M 65.898386,96.647831 c -0.767719,1.001939 -2.476653,2.41593 -2.940755,4.116189 -0.611573,2.22075 1.787007,3.8733 4.593303,3.75619 2.806295,-0.11711 3.587027,-2.02991 3.587027,-4.08149 0,-2.212076 -1.26652,-3.725828 -5.239575,-3.782214 z m 87.120944,-5.465119 c -0.28627,-2.19906 -1.22315,-3.903657 -3.95571,-3.842933 -2.73256,0.06072 -4.25498,1.661223 -4.41113,3.951368 -0.16482,2.441954 1.47038,3.96438 4.18125,3.986067 2.83232,0.03036 3.85161,-1.795682 4.18559,-4.085827 z M 133.76129,74.9435 c 2.78461,-0.147471 3.96004,-1.843393 3.99908,-4.155225 0.039,-2.311833 -1.27086,-3.873295 -3.90366,-3.812572 -2.6328,0.06072 -4.25498,1.68291 -4.36342,3.99908 -0.11711,2.424604 1.44869,3.877632 4.28969,3.98173 z M 92.287105,71.551656 c -0.29928,-2.138336 -1.301219,-3.829921 -3.98173,-3.760522 -2.680511,0.0694 -4.259323,1.64821 -4.39812,3.951368 -0.147471,2.437617 1.453028,3.903657 4.211612,3.942693 2.875694,0.0347 3.799559,-1.795682 4.168238,-4.124864 z m 34.699175,67.342414 c -0.80676,0.99327 -2.7369,2.38123 -3.06654,4.04245 -0.46411,2.31184 1.36628,3.94704 4.10317,3.95137 2.81931,0 4.07282,-1.73496 4.11619,-4.08149 0.0347,-2.25111 -1.21013,-3.72148 -5.15282,-3.90365 z M 66.956711,88.948953 c 0.03036,2.680511 1.335918,4.224624 4.042453,4.337396 2.576413,0.104098 3.96438,-1.387967 4.211612,-3.634738 0.251569,-2.394243 -0.763382,-4.168238 -3.656425,-4.294022 -2.771597,-0.125785 -3.973055,1.609174 -4.59764,3.591364 z m 9.160581,37.488117 c -0.173496,-2.30316 -1.262183,-3.90366 -3.938356,-3.80823 -2.676174,0.0954 -4.211612,1.68291 -4.311372,4.01209 -0.11711,2.46364 1.513751,3.93402 4.211612,3.90365 2.871356,0 3.84727,-1.8217 4.04679,-4.12486 z m 2.168698,14.84691 c 3.33112,-0.5682 4.979331,-2.1687 4.979331,-4.63668 0,-2.33352 -1.205797,-3.77787 -3.829921,-3.90366 -2.329182,-0.11277 -4.909933,2.1687 -4.311372,4.25933 0.468439,1.57013 2.077613,2.86268 3.170636,4.29402 z m 28.06295,4.18558 c -0.30361,-2.11231 -1.48339,-3.69112 -4.11619,-3.52196 -2.632795,0.16916 -4.155221,1.76098 -4.172571,4.14221 0,2.50702 1.643874,3.86896 4.337401,3.78655 2.86701,-0.0954 3.76052,-1.95183 3.95136,-4.4068 z m 44.1894,-19.89997 c -0.12145,-2.11231 -1.14508,-3.70414 -3.82992,-3.69546 -2.68485,0.009 -4.21162,1.6005 -4.39812,3.90365 -0.20386,2.48967 1.44435,3.99041 4.10317,4.02511 2.7716,0.0347 3.92968,-1.70026 4.13354,-4.2333 z M 72.612675,112.83066 c -1.071337,-0.75905 -2.355206,-2.27714 -3.96438,-2.67184 -2.064601,-0.50314 -5.204875,2.25545 -4.79716,3.96438 0.490126,2.10798 1.583149,4.03812 4.471855,3.90366 2.814971,-0.16916 3.721486,-1.99954 4.289685,-5.1962 z m 1.561463,-34.373869 c 0.43374,3.604377 1.973515,4.992343 4.636677,4.857884 2.79762,-0.147471 3.873295,-1.977853 3.790884,-4.337396 -0.08241,-2.359544 -1.587487,-4.055466 -4.068478,-3.469917 -1.808694,0.433739 -3.257384,2.168698 -4.337396,2.953767 z M 115.3794,150.09757 c 2.50702,-0.11278 3.82992,-1.60484 3.90366,-4.00342 0.0824,-2.30316 -1.14941,-3.79089 -3.75185,-3.95137 -2.34653,-0.14313 -4.59764,1.98653 -4.49788,4.22463 0.13012,2.32484 1.52243,3.57835 4.34607,3.73016 z m -2.36388,-84.496821 c -0.10843,-2.324845 -1.11905,-3.986068 -3.79522,-3.990405 -2.67617,-0.0043 -4.25499,1.58315 -4.45451,3.903657 -0.20819,2.441954 1.30122,3.994742 4.05981,4.046791 2.83665,0.05639 3.93835,-1.661223 4.18992,-3.951369 z m 37.93053,52.864181 c 2.06027,0 3.97306,-2.05592 3.73016,-4.57595 -0.20385,-2.11231 -1.3923,-3.43522 -3.98606,-3.35714 -2.85401,0.0824 -4.21162,1.73496 -4.3374,3.97305 -0.13012,2.45497 1.57014,3.81257 4.60631,3.95137 z m 4.50222,-16.67728 c -0.0737,-2.281474 -1.45737,-3.413535 -3.78221,-3.517632 -2.25545,-0.112773 -4.59764,2.168702 -4.50222,4.250652 0.12145,2.68051 2.0299,3.46991 4.57596,3.53931 3.31377,0.0781 3.22268,-2.28147 3.69546,-4.27233 z m -12.22278,34.26543 c -0.2429,-2.06894 -1.23616,-3.68245 -3.96438,-3.60438 -2.72823,0.0781 -4.16824,1.60917 -4.31138,3.95571 -0.1518,2.52436 1.53111,3.9557 4.17258,3.94269 2.76726,0 3.90366,-1.774 4.11619,-4.29402 z m -52.421775,2.96244 c -2.862681,-0.0737 -5.031379,1.84773 -4.979331,4.1292 0.07807,2.36388 1.535439,3.69546 4.042454,3.76052 2.784608,0.0694 4.103177,-1.52676 4.211612,-3.93835 0.112772,-2.29015 -0.988927,-3.78221 -3.261722,-3.95137 z M 143.5985,83.141179 c 2.42027,-0.125784 3.79089,-1.574475 3.88197,-3.977392 0.0867,-2.264121 -1.03663,-3.903657 -3.6998,-3.955706 -2.66316,-0.05205 -4.25932,1.474715 -4.50221,3.795222 -0.23856,2.467979 1.26218,3.877633 4.33739,4.137876 z M 120.83585,62.603608 c -0.76772,0.962902 -2.60244,2.350869 -2.97979,4.016429 -0.52483,2.394243 1.41832,3.903656 4.07715,3.938356 2.80196,0 4.02076,-1.734959 4.05546,-4.094502 0.0434,-2.285808 -1.14941,-3.751848 -5.14415,-3.860283 z m -18.00453,4.844872 c -0.21687,-2.242434 -1.46171,-3.777873 -4.051133,-3.621726 -2.589425,0.156146 -4.18125,1.695922 -4.211612,4.090164 -0.03904,2.502678 1.570138,3.838596 4.307035,3.78221 2.93642,-0.07374 3.74751,-1.904117 3.96004,-4.250648 z"
       style="clip-rule:evenodd;fill:#001c39;fill-opacity:1;fill-rule:nonzero;stroke-width:0.43374;stroke-linejoin:round;stroke-miterlimit:2"
       id="path1" /><path
       d="m 177.10489,118.48228 c -0.0954,3.74751 -2.494,6.15911 -6.02898,6.07236 -3.53498,-0.0868 -6.12874,-2.48533 -6.12874,-5.71235 0,-3.11859 3.35714,-6.10706 6.73597,-5.98561 3.45691,0.0868 5.51283,2.21641 5.42175,5.6256 z"
       style="clip-rule:evenodd;fill:#001c39;fill-opacity:1;fill-rule:nonzero;stroke-width:0.43374;stroke-linejoin:round;stroke-miterlimit:2"
       id="path2" /><path
       d="m 78.077795,48.971171 c 3.370157,0.06506 5.608253,2.333519 5.569216,5.638615 -0.04337,3.521966 -2.68051,6.150428 -6.098379,6.072355 -3.751848,-0.08675 -6.254525,-2.546051 -6.098379,-5.985607 0.121447,-3.070876 3.279072,-5.790424 6.627542,-5.725363 z"
       style="clip-rule:evenodd;fill:#001c39;fill-opacity:1;fill-rule:nonzero;stroke-width:0.43374;stroke-linejoin:round;stroke-miterlimit:2"
       id="path3" /><path
       d="m 52.053417,97.905676 c -0.02603,3.582694 -2.602438,6.254524 -5.94657,6.180794 -3.725824,-0.0781 -6.401997,-2.50268 -6.419347,-5.82079 0,-3.010153 3.469917,-6.102716 6.840074,-6.072355 3.370157,0.03036 5.551867,2.29882 5.525843,5.712351 z"
       style="clip-rule:evenodd;fill:#001c39;fill-opacity:1;fill-rule:nonzero;stroke-width:0.43374;stroke-linejoin:round;stroke-miterlimit:2"
       id="path4" /><path
       d="m 108.96006,39.689143 c 3.4222,-0.0694 5.74705,2.064601 5.85982,5.391384 0.12578,3.521966 -2.36388,6.258863 -5.77308,6.319586 -3.71714,0.08675 -6.42368,-2.307495 -6.44103,-5.703676 -0.026,-2.997141 3.09256,-5.942233 6.35429,-6.007294 z"
       style="clip-rule:evenodd;fill:#001c39;fill-opacity:1;fill-rule:nonzero;stroke-width:0.43374;stroke-linejoin:round;stroke-miterlimit:2"
       id="path5" /><path
       d="m 128.70388,41.159521 c 3.3398,0.03904 5.63862,2.333519 5.61693,5.638615 0,3.561002 -2.54605,6.115729 -6.03332,6.072355 -3.74751,-0.04337 -6.31524,-2.494003 -6.18079,-5.903197 0.11711,-3.03184 3.30944,-5.84681 6.59718,-5.807773 z"
       style="clip-rule:evenodd;fill:#001c39;fill-opacity:1;fill-rule:nonzero;stroke-width:0.43374;stroke-linejoin:round;stroke-miterlimit:2"
       id="path6" /><path
       d="m 93.813868,42.985564 c 3.404857,0 5.695002,2.168699 5.742713,5.495481 0.06072,3.500279 -2.520027,6.219827 -5.916208,6.237176 -3.730161,0 -6.358623,-2.415929 -6.293562,-5.825123 0.0694,-3.070876 3.161961,-5.903196 6.467057,-5.907534 z"
       style="clip-rule:evenodd;fill:#001c39;fill-opacity:1;fill-rule:nonzero;stroke-width:0.43374;stroke-linejoin:round;stroke-miterlimit:2"
       id="path7" /><path
       d="m 69.320592,66.030151 c -0.05205,3.561002 -2.680511,6.115729 -6.128741,5.981269 -3.604377,-0.130121 -6.072355,-2.441954 -6.072355,-5.708013 0,-3.166299 3.283409,-6.124404 6.731639,-6.024644 3.357145,0.104098 5.521505,2.372556 5.469457,5.751388 z"
       style="clip-rule:evenodd;fill:#001c39;fill-opacity:1;fill-rule:nonzero;stroke-width:0.43374;stroke-linejoin:round;stroke-miterlimit:2"
       id="path8" /><path
       d="m 104.71808,165.90738 c -0.12144,3.57401 -2.74557,5.98127 -6.284885,5.80343 -3.539315,-0.17783 -5.985606,-2.57207 -5.907533,-5.8338 0.07373,-3.03617 3.253047,-5.89886 6.532119,-5.89018 3.491599,0.004 5.786089,2.40292 5.660299,5.92055 z"
       style="clip-rule:evenodd;fill:#001c39;fill-opacity:1;fill-rule:nonzero;stroke-width:0.43374;stroke-linejoin:round;stroke-miterlimit:2"
       id="path9" /><path
       d="m 168.98095,78.200885 c 3.37015,0.04337 5.63861,2.31617 5.63861,5.638615 0,3.517629 -2.62846,6.172115 -6.04633,6.111392 -3.76052,-0.06506 -6.28922,-2.498341 -6.17645,-5.920546 0.11711,-3.088227 3.26606,-5.868498 6.58417,-5.829461 z"
       style="clip-rule:evenodd;fill:#001c39;fill-opacity:1;fill-rule:nonzero;stroke-width:0.43374;stroke-linejoin:round;stroke-miterlimit:2"
       id="path10" /><path
       d="m 151.81353,53.508088 c -0.0737,3.608714 -2.6328,6.072355 -6.1244,5.950908 -3.58269,-0.13446 -6.07236,-2.480991 -6.07236,-5.721026 0,-3.114251 3.41353,-6.128741 6.78803,-6.011631 3.37449,0.117109 5.4868,2.424604 5.40873,5.781749 z"
       style="clip-rule:evenodd;fill:#001c39;fill-opacity:1;fill-rule:nonzero;stroke-width:0.43374;stroke-linejoin:round;stroke-miterlimit:2"
       id="path11" /><path
       d="m 178.47984,100.52113 c -0.16048,3.72582 -2.64147,6.0203 -6.27187,5.7991 -3.93836,-0.2429 -6.19814,-2.55473 -5.94223,-6.07236 0.22554,-3.036177 3.53064,-5.716688 6.86609,-5.582229 3.40486,0.143134 5.49549,2.428942 5.34801,5.855489 z"
       style="clip-rule:evenodd;fill:#001c39;fill-opacity:1;fill-rule:nonzero;stroke-width:0.43374;stroke-linejoin:round;stroke-miterlimit:2"
       id="path12" /><path
       d="m 80.680232,155.49762 c 3.361483,-0.0867 5.768737,2.10798 5.894522,5.40006 0.130122,3.51763 -2.342194,6.21115 -5.794761,6.27622 -3.829921,0.0737 -6.419347,-2.1687 -6.432359,-5.63862 -0.01301,-3.00148 3.066539,-5.94223 6.332598,-6.03766 z"
       style="clip-rule:evenodd;fill:#001c39;fill-opacity:1;fill-rule:nonzero;stroke-width:0.43374;stroke-linejoin:round;stroke-miterlimit:2"
       id="path13" /><path
       d="m 165.2291,129.90699 c 3.44823,-0.039 5.74705,2.07761 5.82512,5.39138 0.0998,3.49594 -2.45063,6.2285 -5.85548,6.28489 -3.75185,0.0607 -6.37598,-2.31617 -6.34995,-5.74705 0.0347,-3.11425 3.01449,-5.89452 6.38031,-5.92922 z"
       style="clip-rule:evenodd;fill:#001c39;fill-opacity:1;fill-rule:nonzero;stroke-width:0.43374;stroke-linejoin:round;stroke-miterlimit:2"
       id="path14" /><path
       d="m 124.23637,166.06786 c -0.0911,3.5957 -2.60244,6.02031 -6.18079,5.90753 -3.63474,-0.11711 -6.03332,-2.37689 -6.03332,-5.69066 0,-3.1663 3.25305,-6.03332 6.75766,-5.92922 3.40052,0.1041 5.53452,2.33785 5.45645,5.71235 z"
       style="clip-rule:evenodd;fill:#001c39;fill-opacity:1;fill-rule:nonzero;stroke-width:0.43374;stroke-linejoin:round;stroke-miterlimit:2"
       id="path15" /><path
       d="m 47.668309,123.93439 c -3.626063,-0.0694 -6.124403,-2.36822 -6.124403,-5.63861 0,-3.2704 3.443892,-6.33694 7.009232,-6.25453 2.780271,0.0564 5.152827,2.74124 5.139815,5.82079 0,3.6304 -2.507015,6.13741 -6.024644,6.07235 z"
       style="clip-rule:evenodd;fill:#001c39;fill-opacity:1;fill-rule:nonzero;stroke-width:0.43374;stroke-linejoin:round;stroke-miterlimit:2"
       id="path16" /><path
       d="m 166.43489,65.774245 c -0.0781,3.621725 -2.54605,5.981269 -6.16344,5.864159 -3.61738,-0.117109 -6.09837,-2.402917 -6.07235,-5.668977 0.026,-3.066539 3.44389,-6.015968 6.81839,-5.920546 3.37449,0.09542 5.49548,2.307495 5.4174,5.725364 z"
       style="clip-rule:evenodd;fill:#001c39;fill-opacity:1;fill-rule:nonzero;stroke-width:0.43374;stroke-linejoin:round;stroke-miterlimit:2"
       id="path17" /><path
       d="m 137.50012,167.20859 c -3.78654,0 -6.41067,-2.38556 -6.33693,-5.77307 0.0651,-2.92341 3.34413,-5.87283 6.54947,-5.89018 3.38317,0 5.66897,2.16869 5.70801,5.5215 0.0347,3.53932 -2.45063,6.14175 -5.92055,6.14175 z"
       style="clip-rule:evenodd;fill:#001c39;fill-opacity:1;fill-rule:nonzero;stroke-width:0.43374;stroke-linejoin:round;stroke-miterlimit:2"
       id="path18" /><path
       d="m 70.270481,151.76313 c 0.06506,3.63473 -2.29882,6.13741 -5.855485,6.1591 -3.790884,0.0217 -6.432358,-2.35087 -6.384647,-5.72536 0.04337,-2.90172 3.322445,-5.8685 6.506094,-5.88585 3.487267,-0.026 5.66464,2.05159 5.734038,5.45211 z"
       style="clip-rule:evenodd;fill:#001c39;fill-opacity:1;fill-rule:nonzero;stroke-width:0.43374;stroke-linejoin:round;stroke-miterlimit:2"
       id="path19" /><path
       d="m 52.456795,75.255793 c 3.422205,-0.06506 5.74705,2.068938 5.864159,5.374034 0.11711,3.521966 -2.376893,6.18079 -5.838135,6.228501 -3.868957,0.05639 -6.38031,-2.168698 -6.384647,-5.638615 -0.0043,-3.066539 3.01449,-5.894522 6.358623,-5.96392 z"
       style="clip-rule:evenodd;fill:#001c39;fill-opacity:1;fill-rule:nonzero;stroke-width:0.43374;stroke-linejoin:round;stroke-miterlimit:2"
       id="path20" /><path
       d="m 159.93747,151.50722 c -0.0998,3.61739 -2.60243,5.96392 -6.20247,5.82946 -3.60004,-0.13446 -6.04633,-2.44195 -6.02031,-5.71235 0.026,-3.05786 3.44823,-5.98561 6.85309,-5.87717 3.40485,0.10843 5.4868,2.33352 5.36969,5.76006 z"
       style="clip-rule:evenodd;fill:#001c39;fill-opacity:1;fill-rule:nonzero;stroke-width:0.43374;stroke-linejoin:round;stroke-miterlimit:2"
       id="path21" /><path
       d="m 59.578799,136.47814 c 0.08241,3.57835 -2.355206,6.18513 -5.820785,6.23284 -3.829921,0.0434 -6.393323,-2.25545 -6.375973,-5.68633 0,-3.03617 3.088226,-5.89886 6.39766,-5.94223 3.44823,-0.0477 5.716688,2.06894 5.799098,5.39572 z"
       style="clip-rule:evenodd;fill:#001c39;fill-opacity:1;fill-rule:nonzero;stroke-width:0.43374;stroke-linejoin:round;stroke-miterlimit:2"
       id="path22" /><path
       d="m 125.32072,92.132602 c -5.98561,-7.334537 -16.01367,-8.991423 -27.130419,-4.654026 -6.818387,2.654486 -12.639173,12.790984 -11.142771,19.978044 1.808694,8.63142 7.299838,15.28932 16.15246,18.06526 14.938,4.67571 27.39934,-4.38945 27.24753,-18.88936 0.0837,-5.29032 -1.73626,-10.43838 -5.1268,-14.499918 z m -19.15395,22.710608 c -4.0251,-1.26218 -6.506091,-4.28969 -7.343209,-8.24105 -0.685308,-3.26606 1.964839,-7.876716 5.070419,-9.086849 5.0574,-1.973516 9.61601,-1.214471 12.33989,2.112312 1.54151,1.848597 2.36952,4.190357 2.33352,6.597177 0.0564,6.60152 -5.63862,10.72638 -12.40929,8.59672 z"
       style="clip-rule:evenodd;fill:#001c39;fill-opacity:1;fill-rule:nonzero;stroke-width:0.43374;stroke-linejoin:round;stroke-miterlimit:2"
       id="path23" /><path
       d="m 662.97225,1044.1119 q -0.55553,0 -1.02815,-0.2156 -0.46433,-0.2156 -0.76283,-0.6219 l 0.61358,-0.7379 q 0.24045,0.3316 0.52237,0.4975 0.2902,0.1658 0.63016,0.1658 0.90378,0 0.90378,-1.0696 v -3.0016 h -2.0646 v -0.9038 h 3.14251 v 3.8473 q 0,1.0282 -0.50579,1.534 -0.49749,0.5058 -1.45103,0.5058 z m 6.09432,-0.083 v -0.8954 l -0.058,-0.1908 v -1.5671 q 0,-0.456 -0.27363,-0.7047 -0.27362,-0.2571 -0.82915,-0.2571 -0.37312,0 -0.73795,0.1161 -0.35654,0.1161 -0.60529,0.3234 l -0.40629,-0.7546 q 0.35654,-0.2736 0.84574,-0.4063 0.4975,-0.1409 1.02816,-0.1409 0.96182,0 1.48419,0.4643 0.53066,0.4561 0.53066,1.4179 v 2.5952 z m -1.39299,0.058 q -0.49749,0 -0.87061,-0.1658 -0.37312,-0.1742 -0.58041,-0.4727 -0.199,-0.3068 -0.199,-0.6882 0,-0.3731 0.17412,-0.6716 0.18242,-0.2985 0.5887,-0.4726 0.40629,-0.1741 1.07791,-0.1741 h 1.28519 v 0.6882 h -1.21057 q -0.53066,0 -0.71307,0.1741 -0.18242,0.1658 -0.18242,0.4146 0,0.2819 0.22388,0.4477 0.22387,0.1658 0.62186,0.1658 0.38142,0 0.67991,-0.1741 0.30679,-0.1741 0.43946,-0.5141 l 0.17412,0.6219 q -0.14925,0.3897 -0.53895,0.6053 -0.38142,0.2156 -0.97012,0.2156 z m 4.59354,-0.058 -1.62515,-4.4277 h 0.97841 l 1.39298,3.9054 h -0.46433 l 1.45932,-3.9054 h 0.87062 l 1.41786,3.9054 h -0.45604 l 1.43444,-3.9054 h 0.92037 l -1.63344,4.4277 h -0.99499 l -1.29349,-3.4575 h 0.30679 l -1.31836,3.4575 z m 6.64156,0 v -4.4277 h 1.03645 v 4.4277 z m 0.52237,-5.1573 q -0.2902,0 -0.48091,-0.1824 -0.18242,-0.1825 -0.18242,-0.4395 0,-0.2653 0.18242,-0.4394 0.19071,-0.1825 0.48091,-0.1825 0.29021,0 0.47262,0.1742 0.19071,0.1658 0.19071,0.4228 0,0.2737 -0.18242,0.4644 -0.18241,0.1824 -0.48091,0.1824 z m 4.38624,0.6799 q 0.53066,0 0.94524,0.2073 0.42287,0.2073 0.66333,0.6384 0.24046,0.4229 0.24046,1.0945 v 2.5372 h -1.03645 v -2.4045 q 0,-0.5887 -0.28192,-0.8789 -0.27362,-0.2902 -0.77111,-0.2902 -0.36483,0 -0.64675,0.1492 -0.28191,0.1493 -0.43945,0.4478 -0.14925,0.2902 -0.14925,0.7379 v 2.2387 h -1.03645 v -4.4277 h 0.9867 v 1.194 l -0.17412,-0.3648 q 0.23216,-0.4229 0.67162,-0.6467 0.44774,-0.2322 1.02815,-0.2322 z"
       id="text25"
       style="font-size:8.29158px;font-family:Montserrat;-inkscape-font-specification:'Montserrat, @wght=600';font-variation-settings:'wght' 600;white-space:pre;fill:#001c39"
       transform="matrix(11.062088,0,0,11.062088,-7095.4218,-11443.683)"
       aria-label="Jawin" /><path
       d="m 663.43722,1041.1285 q -0.4082,0 -0.75517,-0.1327 -0.34187,-0.1377 -0.597,-0.3827 -0.25002,-0.2449 -0.39289,-0.5765 -0.13777,-0.3317 -0.13777,-0.7246 0,-0.3929 0.13777,-0.7245 0.14287,-0.3317 0.398,-0.5766 0.25512,-0.245 0.59699,-0.3776 0.34697,-0.1378 0.75517,-0.1378 0.4082,0 0.74497,0.1276 0.34187,0.1275 0.58168,0.3878 l -0.23471,0.2398 q -0.22451,-0.2245 -0.49494,-0.3215 -0.27044,-0.097 -0.58169,-0.097 -0.33166,0 -0.6123,0.1122 -0.27554,0.1072 -0.48474,0.3113 -0.2041,0.199 -0.32146,0.4694 -0.11225,0.2654 -0.11225,0.5868 0,0.3164 0.11225,0.5868 0.11736,0.2704 0.32146,0.4745 0.2092,0.199 0.48474,0.3113 0.28064,0.1071 0.6072,0.1071 0.30615,0 0.57658,-0.092 0.27554,-0.092 0.50515,-0.3113 l 0.2143,0.2858 q -0.25512,0.2245 -0.59699,0.3418 -0.34187,0.1123 -0.71435,0.1123 z m 0.94907,-0.5 v -1.3165 h 0.36227 v 1.3624 z m 1.35216,0.4694 v -2.6788 h 0.34698 v 0.7296 l -0.0357,-0.1275 q 0.11225,-0.3062 0.37758,-0.4644 0.26533,-0.1632 0.65823,-0.1632 v 0.352 q -0.0204,0 -0.0408,0 -0.0204,-0.01 -0.0408,-0.01 -0.42351,0 -0.66333,0.2603 -0.23982,0.2551 -0.23982,0.7296 v 1.3675 z m 3.07307,0.025 q -0.38779,0 -0.69904,-0.1735 -0.30615,-0.1786 -0.48474,-0.4847 -0.17859,-0.3113 -0.17859,-0.7093 0,-0.4031 0.17859,-0.7092 0.17859,-0.3062 0.48474,-0.4797 0.30615,-0.1734 0.69904,-0.1734 0.398,0 0.70415,0.1734 0.31125,0.1735 0.48474,0.4797 0.17858,0.3061 0.17858,0.7092 0,0.398 -0.17858,0.7093 -0.17349,0.3061 -0.48474,0.4847 -0.31126,0.1735 -0.70415,0.1735 z m 0,-0.3215 q 0.29084,0 0.51535,-0.1275 0.22452,-0.1327 0.35208,-0.3674 0.13266,-0.2398 0.13266,-0.5511 0,-0.3163 -0.13266,-0.551 -0.12756,-0.2348 -0.35208,-0.3623 -0.22451,-0.1327 -0.51025,-0.1327 -0.28574,0 -0.51025,0.1327 -0.22451,0.1275 -0.35717,0.3623 -0.13267,0.2347 -0.13267,0.551 0,0.3113 0.13267,0.5511 0.13266,0.2347 0.35717,0.3674 0.22451,0.1275 0.50515,0.1275 z m 3.21459,0.3215 q -0.34187,0 -0.597,-0.1276 -0.25512,-0.1275 -0.39799,-0.3827 -0.13777,-0.2551 -0.13777,-0.6378 v -1.5562 h 0.36228 v 1.5154 q 0,0.4286 0.2092,0.648 0.21431,0.2143 0.59699,0.2143 0.28064,0 0.48474,-0.1122 0.20921,-0.1174 0.31636,-0.3368 0.11225,-0.2194 0.11225,-0.5255 v -1.4032 h 0.36228 v 2.6788 h -0.34697 v -0.7348 l 0.0561,0.1327 q -0.12756,0.2959 -0.398,0.4643 -0.26533,0.1633 -0.6225,0.1633 z m 3.70442,0 q -0.34697,0 -0.62761,-0.1582 -0.28063,-0.1633 -0.44902,-0.4643 -0.16328,-0.3062 -0.16328,-0.745 0,-0.4388 0.16328,-0.7398 0.16328,-0.3062 0.44392,-0.4644 0.28064,-0.1581 0.63271,-0.1581 0.38269,0 0.68374,0.1734 0.30615,0.1684 0.47964,0.4797 0.17348,0.3061 0.17348,0.7092 0,0.4082 -0.17348,0.7144 -0.17349,0.3061 -0.47964,0.4796 -0.30105,0.1735 -0.68374,0.1735 z m -1.38278,0.9644 v -3.6687 h 0.34697 v 0.8062 l -0.0357,0.5357 0.051,0.5409 v 1.7859 z m 1.35727,-1.2859 q 0.28574,0 0.51025,-0.1275 0.22451,-0.1327 0.35718,-0.3674 0.13266,-0.2398 0.13266,-0.5511 0,-0.3112 -0.13266,-0.5459 -0.13267,-0.2348 -0.35718,-0.3674 -0.22451,-0.1327 -0.51025,-0.1327 -0.28574,0 -0.51535,0.1327 -0.22451,0.1326 -0.35718,0.3674 -0.12756,0.2347 -0.12756,0.5459 0,0.3113 0.12756,0.5511 0.13267,0.2347 0.35718,0.3674 0.22961,0.1275 0.51535,0.1275 z"
       id="text25-4"
       style="font-size:5.10251px;font-family:Montserrat;-inkscape-font-specification:'Montserrat, @wght=400';font-variation-settings:'wght' 400;white-space:pre;fill:#001c39"
       transform="matrix(11.062088,0,0,11.062088,-7049.9245,-11350.648)"
       aria-label="Group" /></g></svg>
