<?xml version="1.0" encoding="UTF-8" standalone="no"?>
<!-- Created with Inkscape (http://www.inkscape.org/) -->

<svg
   width="2000"
   height="800"
   viewBox="0 0 529.16675 211.6667"
   version="1.1"
   id="svg1"
   xml:space="preserve"
   sodipodi:docname="P Fixed 10 on 90 Jawin Group Logo - horizontal.svg"
   inkscape:version="1.3 (0e150ed6c4, 2023-07-21)"
   inkscape:export-filename="email-logo"
   inkscape:export-xdpi="300"
   inkscape:export-ydpi="300"
   xmlns:inkscape="http://www.inkscape.org/namespaces/inkscape"
   xmlns:sodipodi="http://sodipodi.sourceforge.net/DTD/sodipodi-0.dtd"
   xmlns="http://www.w3.org/2000/svg"
   xmlns:svg="http://www.w3.org/2000/svg"><sodipodi:namedview
     id="namedview1"
     pagecolor="#ffffff"
     bordercolor="#000000"
     borderopacity="0.25"
     inkscape:showpageshadow="2"
     inkscape:pageopacity="0.0"
     inkscape:pagecheckerboard="0"
     inkscape:deskcolor="#d1d1d1"
     inkscape:document-units="mm"
     inkscape:zoom="0.25858552"
     inkscape:cx="686.42668"
     inkscape:cy="640.02037"
     inkscape:window-width="1920"
     inkscape:window-height="1009"
     inkscape:window-x="-8"
     inkscape:window-y="-8"
     inkscape:window-maximized="1"
     inkscape:current-layer="layer1"
     inkscape:export-bgcolor="#ffffffff" /><defs
     id="defs1"><rect
       x="661.28992"
       y="1036.4076"
       width="1094.4155"
       height="301.64102"
       id="rect25" /><rect
       x="661.28992"
       y="1036.4076"
       width="1094.4155"
       height="301.64102"
       id="rect25-0" /></defs><g
     inkscape:label="Layer 1"
     inkscape:groupmode="layer"
     id="layer1"><g
       style="clip-rule:evenodd;fill:#001c39;fill-opacity:1;fill-rule:evenodd;stroke-linejoin:round;stroke-miterlimit:2"
       id="g24"
       transform="matrix(0.43373963,0,0,0.43373963,39.6875,39.687495)"><g
         transform="translate(-12.49,-12.9962)"
         id="g1"
         style="fill:#001c39;fill-opacity:1">&#10;                      <path
   d="m 292.16,162.37 c 0.45,26.22 -7.66,50.3 -22.88,72.26 -26.78,38.65 -72.54,53.1 -125.31,42.68 -49.25,-9.74 -76.75,-37.68 -88.81,-81.07 -9.83,-35.38 -4,-67.14 24,-94.28 C 83.403,97.95 87.328,93.617 90.9,89 115.41,56.59 151,47.67 191,50.5 c 59,4.17 97.45,43 101.1,100.39 0.27,3.82 0.06,7.65 0.06,11.48 z m -43.59,7.3 c -1.3,-8.36 -1.88,-15.52 -3.54,-22.45 -12.09,-49.8 -65,-72.48 -120.82,-40.91 -25.4,14.36 -36.4,55.84 -23.77,80.8 5.7,11.27 15.55,20.81 23.85,30.91 9.33,11.36 22.07,17.27 37.33,19.55 39.53,5.89 70.52,-9.54 81.95,-42 3,-8.59 3.52,-17.93 5,-25.88 z M 72.92,144.32 c -1.77,2.31 -5.71,5.57 -6.78,9.49 -1.41,5.12 4.12,8.93 10.59,8.66 6.47,-0.27 8.27,-4.68 8.27,-9.41 0,-5.1 -2.92,-8.59 -12.08,-8.72 z m 200.86,-12.6 c -0.66,-5.07 -2.82,-9 -9.12,-8.86 -6.3,0.14 -9.81,3.83 -10.17,9.11 -0.38,5.63 3.39,9.14 9.64,9.19 6.53,0.07 8.88,-4.14 9.65,-9.42 z m -44.4,-37.44 c 6.42,-0.34 9.13,-4.25 9.22,-9.58 0.09,-5.33 -2.93,-8.93 -9,-8.79 -6.07,0.14 -9.81,3.88 -10.06,9.22 -0.27,5.59 3.34,8.94 9.89,9.18 z m -95.62,-7.82 c -0.69,-4.93 -3,-8.83 -9.18,-8.67 -6.18,0.16 -9.82,3.8 -10.14,9.11 -0.34,5.62 3.35,9 9.71,9.09 6.63,0.08 8.76,-4.14 9.61,-9.51 z m 80,155.26 c -1.86,2.29 -6.31,5.49 -7.07,9.32 -1.07,5.33 3.15,9.1 9.46,9.11 6.5,0 9.39,-4 9.49,-9.41 0.08,-5.19 -2.79,-8.58 -11.88,-9 z M 75.36,126.57 c 0.07,6.18 3.08,9.74 9.32,10 5.94,0.24 9.14,-3.2 9.71,-8.38 0.58,-5.52 -1.76,-9.61 -8.43,-9.9 C 79.57,118 76.8,122 75.36,126.57 Z M 96.48,213 c -0.4,-5.31 -2.91,-9 -9.08,-8.78 -6.17,0.22 -9.71,3.88 -9.94,9.25 -0.27,5.68 3.49,9.07 9.71,9 6.62,0 8.87,-4.2 9.33,-9.51 z m 5,34.23 c 7.68,-1.31 11.48,-5 11.48,-10.69 0,-5.38 -2.78,-8.71 -8.83,-9 -5.37,-0.26 -11.32,5 -9.94,9.82 1.08,3.62 4.79,6.6 7.31,9.9 z m 64.7,9.65 c -0.7,-4.87 -3.42,-8.51 -9.49,-8.12 -6.07,0.39 -9.58,4.06 -9.62,9.55 0,5.78 3.79,8.92 10,8.73 6.61,-0.22 8.67,-4.5 9.11,-10.16 z M 268.06,211 c -0.28,-4.87 -2.64,-8.54 -8.83,-8.52 -6.19,0.02 -9.71,3.69 -10.14,9 -0.47,5.74 3.33,9.2 9.46,9.28 6.39,0.08 9.06,-3.92 9.53,-9.76 z M 88.4,181.63 c -2.47,-1.75 -5.43,-5.25 -9.14,-6.16 -4.76,-1.16 -12,5.2 -11.06,9.14 1.13,4.86 3.65,9.31 10.31,9 C 85,193.22 87.09,189 88.4,181.63 Z M 92,102.38 c 1,8.31 4.55,11.51 10.69,11.2 6.45,-0.34 8.93,-4.56 8.74,-10 -0.19,-5.44 -3.66,-9.35 -9.38,-8 -4.17,1 -7.51,5 -10,6.81 z m 95,165.17 c 5.78,-0.26 8.83,-3.7 9,-9.23 0.19,-5.31 -2.65,-8.74 -8.65,-9.11 -5.41,-0.33 -10.6,4.58 -10.37,9.74 0.3,5.36 3.51,8.25 10.02,8.6 z M 181.55,72.74 c -0.25,-5.36 -2.58,-9.19 -8.75,-9.2 -6.17,-0.01 -9.81,3.65 -10.27,9 -0.48,5.63 3,9.21 9.36,9.33 6.54,0.13 9.08,-3.83 9.66,-9.11 z M 269,194.62 c 4.75,0 9.16,-4.74 8.6,-10.55 -0.47,-4.87 -3.21,-7.92 -9.19,-7.74 -6.58,0.19 -9.71,4 -10,9.16 -0.3,5.66 3.62,8.79 10.62,9.11 z m 10.38,-38.45 c -0.17,-5.26 -3.36,-7.87 -8.72,-8.11 -5.2,-0.26 -10.6,5 -10.38,9.8 0.28,6.18 4.68,8 10.55,8.16 7.64,0.18 7.43,-5.26 8.52,-9.85 z m -28.18,79 c -0.56,-4.77 -2.85,-8.49 -9.14,-8.31 -6.29,0.18 -9.61,3.71 -9.94,9.12 -0.35,5.82 3.53,9.12 9.62,9.09 6.38,0 9,-4.09 9.49,-9.9 z M 130.34,242 c -6.6,-0.17 -11.6,4.26 -11.48,9.52 0.18,5.45 3.54,8.52 9.32,8.67 6.42,0.16 9.46,-3.52 9.71,-9.08 0.26,-5.28 -2.28,-8.72 -7.52,-9.11 z M 252.06,113.18 c 5.58,-0.29 8.74,-3.63 8.95,-9.17 0.2,-5.22 -2.39,-9 -8.53,-9.12 -6.14,-0.12 -9.82,3.4 -10.38,8.75 -0.55,5.69 2.91,8.94 10,9.54 z M 199.58,65.83 c -1.77,2.22 -6,5.42 -6.87,9.26 -1.21,5.52 3.27,9 9.4,9.08 6.46,0 9.27,-4 9.35,-9.44 0.1,-5.27 -2.65,-8.65 -11.86,-8.9 z M 158.07,77 c -0.5,-5.17 -3.37,-8.71 -9.34,-8.35 -5.97,0.36 -9.64,3.91 -9.71,9.43 -0.09,5.77 3.62,8.85 9.93,8.72 6.77,-0.17 8.64,-4.39 9.13,-9.8 z"
   style="fill:#001c39;fill-opacity:1;fill-rule:nonzero"
   id="path1" />&#10;                    </g><g
         transform="translate(-12.49,-12.9962)"
         id="g2"
         style="fill:#001c39;fill-opacity:1">&#10;                      <path
   d="m 329.31,194.66 c -0.22,8.64 -5.75,14.2 -13.9,14 -8.15,-0.2 -14.13,-5.73 -14.13,-13.17 0,-7.19 7.74,-14.08 15.53,-13.8 7.97,0.2 12.71,5.11 12.5,12.97 z"
   style="fill:#001c39;fill-opacity:1;fill-rule:nonzero"
   id="path2" />&#10;                    </g><g
         transform="translate(-12.49,-12.9962)"
         id="g3"
         style="fill:#001c39;fill-opacity:1">&#10;                      <path
   d="m 101,34.4 c 7.77,0.15 12.93,5.38 12.84,13 -0.1,8.12 -6.18,14.18 -14.06,14 C 91.13,61.2 85.36,55.53 85.72,47.6 86,40.52 93.28,34.25 101,34.4 Z"
   style="fill:#001c39;fill-opacity:1;fill-rule:nonzero"
   id="path3" />&#10;                    </g><g
         transform="translate(-12.49,-12.9962)"
         id="g4"
         style="fill:#001c39;fill-opacity:1">&#10;                      <path
   d="m 41,147.22 c -0.06,8.26 -6,14.42 -13.71,14.25 -8.59,-0.18 -14.76,-5.77 -14.8,-13.42 0,-6.94 8,-14.07 15.77,-14 7.77,0.07 12.8,5.3 12.74,13.17 z"
   style="fill:#001c39;fill-opacity:1;fill-rule:nonzero"
   id="path4" />&#10;                    </g><g
         transform="translate(-12.49,-12.9962)"
         id="g5"
         style="fill:#001c39;fill-opacity:1">&#10;                      <path
   d="m 172.2,13 c 7.89,-0.16 13.25,4.76 13.51,12.43 C 186,33.55 180.26,39.86 172.4,40 163.83,40.2 157.59,34.68 157.55,26.85 157.49,19.94 164.68,13.15 172.2,13 Z"
   style="fill:#001c39;fill-opacity:1;fill-rule:nonzero"
   id="path5" />&#10;                    </g><g
         transform="translate(-12.49,-12.9962)"
         id="g6"
         style="fill:#001c39;fill-opacity:1">&#10;                      <path
   d="m 217.72,16.39 c 7.7,0.09 13,5.38 12.95,13 0,8.21 -5.87,14.1 -13.91,14 -8.64,-0.1 -14.56,-5.75 -14.25,-13.61 0.27,-6.99 7.63,-13.48 15.21,-13.39 z"
   style="fill:#001c39;fill-opacity:1;fill-rule:nonzero"
   id="path6" />&#10;                    </g><g
         transform="translate(-12.49,-12.9962)"
         id="g7"
         style="fill:#001c39;fill-opacity:1">&#10;                      <path
   d="m 137.28,20.6 c 7.85,0 13.13,5 13.24,12.67 0.14,8.07 -5.81,14.34 -13.64,14.38 -8.6,0 -14.66,-5.57 -14.51,-13.43 0.16,-7.08 7.29,-13.61 14.91,-13.62 z"
   style="fill:#001c39;fill-opacity:1;fill-rule:nonzero"
   id="path7" />&#10;                    </g><g
         transform="translate(-12.49,-12.9962)"
         id="g8"
         style="fill:#001c39;fill-opacity:1">&#10;                      <path
   d="m 80.81,73.73 c -0.12,8.21 -6.18,14.1 -14.13,13.79 -8.31,-0.3 -14,-5.63 -14,-13.16 0,-7.3 7.57,-14.12 15.52,-13.89 7.74,0.24 12.73,5.47 12.61,13.26 z"
   style="fill:#001c39;fill-opacity:1;fill-rule:nonzero"
   id="path8" />&#10;                    </g><g
         transform="translate(-12.49,-12.9962)"
         id="g9"
         style="fill:#001c39;fill-opacity:1">&#10;                      <path
   d="m 162.42,304 c -0.28,8.24 -6.33,13.79 -14.49,13.38 -8.16,-0.41 -13.8,-5.93 -13.62,-13.45 0.17,-7 7.5,-13.6 15.06,-13.58 8.05,0.01 13.34,5.54 13.05,13.65 z"
   style="fill:#001c39;fill-opacity:1;fill-rule:nonzero"
   id="path9" />&#10;                    </g><g
         transform="translate(-12.49,-12.9962)"
         id="g10"
         style="fill:#001c39;fill-opacity:1">&#10;                      <path
   d="m 310.58,101.79 c 7.77,0.1 13,5.34 13,13 0,8.11 -6.06,14.23 -13.94,14.09 -8.67,-0.15 -14.5,-5.76 -14.24,-13.65 0.27,-7.12 7.53,-13.53 15.18,-13.44 z"
   style="fill:#001c39;fill-opacity:1;fill-rule:nonzero"
   id="path10" />&#10;                    </g><g
         transform="translate(-12.49,-12.9962)"
         id="g11"
         style="fill:#001c39;fill-opacity:1">&#10;                      <path
   d="m 271,44.86 c -0.17,8.32 -6.07,14 -14.12,13.72 -8.26,-0.31 -14,-5.72 -14,-13.19 0,-7.18 7.87,-14.13 15.65,-13.86 7.78,0.27 12.65,5.59 12.47,13.33 z"
   style="fill:#001c39;fill-opacity:1;fill-rule:nonzero"
   id="path11" />&#10;                    </g><g
         transform="translate(-12.49,-12.9962)"
         id="g12"
         style="fill:#001c39;fill-opacity:1">&#10;                      <path
   d="m 332.48,153.25 c -0.37,8.59 -6.09,13.88 -14.46,13.37 -9.08,-0.56 -14.29,-5.89 -13.7,-14 0.52,-7 8.14,-13.18 15.83,-12.87 7.85,0.33 12.67,5.6 12.33,13.5 z"
   style="fill:#001c39;fill-opacity:1;fill-rule:nonzero"
   id="path12" />&#10;                    </g><g
         transform="translate(-12.49,-12.9962)"
         id="g13"
         style="fill:#001c39;fill-opacity:1">&#10;                      <path
   d="m 107,280 c 7.75,-0.2 13.3,4.86 13.59,12.45 0.3,8.11 -5.4,14.32 -13.36,14.47 -8.83,0.17 -14.8,-5 -14.83,-13 C 92.37,287 99.47,280.22 107,280 Z"
   style="fill:#001c39;fill-opacity:1;fill-rule:nonzero"
   id="path13" />&#10;                    </g><g
         transform="translate(-12.49,-12.9962)"
         id="g14"
         style="fill:#001c39;fill-opacity:1">&#10;                      <path
   d="m 301.93,221 c 7.95,-0.09 13.25,4.79 13.43,12.43 0.23,8.06 -5.65,14.36 -13.5,14.49 -8.65,0.14 -14.7,-5.34 -14.64,-13.25 0.08,-7.18 6.95,-13.59 14.71,-13.67 z"
   style="fill:#001c39;fill-opacity:1;fill-rule:nonzero"
   id="path14" />&#10;                    </g><g
         transform="translate(-12.49,-12.9962)"
         id="g15"
         style="fill:#001c39;fill-opacity:1">&#10;                      <path
   d="m 207.42,304.37 c -0.21,8.29 -6,13.88 -14.25,13.62 -8.38,-0.27 -13.91,-5.48 -13.91,-13.12 0,-7.3 7.5,-13.91 15.58,-13.67 7.84,0.24 12.76,5.39 12.58,13.17 z"
   style="fill:#001c39;fill-opacity:1;fill-rule:nonzero"
   id="path15" />&#10;                    </g><g
         transform="translate(-12.49,-12.9962)"
         id="g16"
         style="fill:#001c39;fill-opacity:1">&#10;                      <path
   d="m 30.89,207.23 c -8.36,-0.16 -14.12,-5.46 -14.12,-13 0,-7.54 7.94,-14.61 16.16,-14.42 6.41,0.13 11.88,6.32 11.85,13.42 0,8.37 -5.78,14.15 -13.89,14 z"
   style="fill:#001c39;fill-opacity:1;fill-rule:nonzero"
   id="path16" />&#10;                    </g><g
         transform="translate(-12.49,-12.9962)"
         id="g17"
         style="fill:#001c39;fill-opacity:1">&#10;                      <path
   d="m 304.71,73.14 c -0.18,8.35 -5.87,13.79 -14.21,13.52 -8.34,-0.27 -14.06,-5.54 -14,-13.07 0.06,-7.07 7.94,-13.87 15.72,-13.65 7.78,0.22 12.67,5.32 12.49,13.2 z"
   style="fill:#001c39;fill-opacity:1;fill-rule:nonzero"
   id="path17" />&#10;                    </g><g
         transform="translate(-12.49,-12.9962)"
         id="g18"
         style="fill:#001c39;fill-opacity:1">&#10;                      <path
   d="m 238,307 c -8.73,0 -14.78,-5.5 -14.61,-13.31 0.15,-6.74 7.71,-13.54 15.1,-13.58 7.8,0 13.07,5 13.16,12.73 C 251.73,301 246,307 238,307 Z"
   style="fill:#001c39;fill-opacity:1;fill-rule:nonzero"
   id="path18" />&#10;                    </g><g
         transform="translate(-12.49,-12.9962)"
         id="g19"
         style="fill:#001c39;fill-opacity:1">&#10;                      <path
   d="m 83,271.39 c 0.15,8.38 -5.3,14.15 -13.5,14.2 -8.74,0.05 -14.83,-5.42 -14.72,-13.2 0.1,-6.69 7.66,-13.53 15,-13.57 8.04,-0.06 13.06,4.73 13.22,12.57 z"
   style="fill:#001c39;fill-opacity:1;fill-rule:nonzero"
   id="path19" />&#10;                    </g><g
         transform="translate(-12.49,-12.9962)"
         id="g20"
         style="fill:#001c39;fill-opacity:1">&#10;                      <path
   d="m 41.93,95 c 7.89,-0.15 13.25,4.77 13.52,12.39 0.27,8.12 -5.48,14.25 -13.46,14.36 -8.92,0.13 -14.71,-5 -14.72,-13 C 27.26,101.68 34.22,95.16 41.93,95 Z"
   style="fill:#001c39;fill-opacity:1;fill-rule:nonzero"
   id="path20" />&#10;                    </g><g
         transform="translate(-12.49,-12.9962)"
         id="g21"
         style="fill:#001c39;fill-opacity:1">&#10;                      <path
   d="m 289.73,270.8 c -0.23,8.34 -6,13.75 -14.3,13.44 -8.3,-0.31 -13.94,-5.63 -13.88,-13.17 0.06,-7.05 7.95,-13.8 15.8,-13.55 7.85,0.25 12.65,5.38 12.38,13.28 z"
   style="fill:#001c39;fill-opacity:1;fill-rule:nonzero"
   id="path21" />&#10;                    </g><g
         transform="translate(-12.49,-12.9962)"
         id="g22"
         style="fill:#001c39;fill-opacity:1">&#10;                      <path
   d="m 58.35,236.15 c 0.19,8.25 -5.43,14.26 -13.42,14.37 -8.83,0.1 -14.74,-5.2 -14.7,-13.11 0,-7 7.12,-13.6 14.75,-13.7 7.95,-0.11 13.18,4.77 13.37,12.44 z"
   style="fill:#001c39;fill-opacity:1;fill-rule:nonzero"
   id="path22" />&#10;                    </g><g
         transform="translate(-12.49,-12.9962)"
         id="g23"
         style="fill:#001c39;fill-opacity:1">&#10;                      <path
   d="M 209.92,133.91 C 196.12,117 173,113.18 147.37,123.18 c -15.72,6.12 -29.14,29.49 -25.69,46.06 4.17,19.9 16.83,35.25 37.24,41.65 34.44,10.78 63.17,-10.12 62.82,-43.55 0.193,-12.197 -4.003,-24.066 -11.82,-33.43 z m -44.16,52.36 c -9.28,-2.91 -15,-9.89 -16.93,-19 -1.58,-7.53 4.53,-18.16 11.69,-20.95 11.66,-4.55 22.17,-2.8 28.45,4.87 3.554,4.262 5.463,9.661 5.38,15.21 0.13,15.22 -13,24.73 -28.61,19.82 z"
   style="fill:#001c39;fill-opacity:1;fill-rule:nonzero"
   id="path23" />&#10;                    </g></g><text
       xml:space="preserve"
       transform="matrix(11.062088,0,0,11.062088,-7095.4218,-11443.683)"
       id="text25"
       style="font-style:normal;font-variant:normal;font-weight:normal;font-stretch:normal;font-size:8.29158px;font-family:Montserrat;-inkscape-font-specification:'Montserrat, @wght=600';font-variant-ligatures:normal;font-variant-caps:normal;font-variant-numeric:normal;font-variant-east-asian:normal;font-variation-settings:'wght' 600;white-space:pre;shape-inside:url(#rect25);display:inline;fill:#001c39;fill-opacity:1"><tspan
         x="661.28906"
         y="1044.0289"
         id="tspan1">Jawin</tspan></text><text
       xml:space="preserve"
       transform="matrix(11.062088,0,0,11.062088,-7049.9245,-11350.648)"
       id="text25-4"
       style="font-style:normal;font-variant:normal;font-weight:normal;font-stretch:normal;font-size:5.10251px;font-family:Montserrat;-inkscape-font-specification:'Montserrat, @wght=400';font-variant-ligatures:normal;font-variant-caps:normal;font-variant-numeric:normal;font-variant-east-asian:normal;font-variation-settings:'wght' 400;white-space:pre;shape-inside:url(#rect25-0);display:inline;fill:#001c39;fill-opacity:1"><tspan
         x="661.28906"
         y="1041.0979"
         id="tspan2">Group</tspan></text></g></svg>
